<svg id="Layer_1" data-name="Layer 1" xmlns="http://www.w3.org/2000/svg" viewBox="0 0 104.85 60"><defs><style>.cls-1{fill:#fff;}</style></defs><title>VicGov_BrandMark_StateGov_Rev_60px</title><path class="cls-1" d="M97.83,26H98l1.07,2.88H96.76Zm-.68-6L91,33.32h3.95l.68-1.53h4.62l.68,1.53h3.95L98.68,20Z" transform="translate(0 0)"/><path class="cls-1" d="M56.74,0H0L9.45,20h4l3.38,7.27L20.23,20h4.05L18.2,33.33H15.76L28.37,60,41.21,32.86a7.91,7.91,0,0,1-3.43.76,7,7,0,1,1,0-13.94A7.39,7.39,0,0,1,44,22.83l-3,1.85a3.56,3.56,0,0,0-3-1.55,3.52,3.52,0,0,0,0,7,3.56,3.56,0,0,0,3-1.55l1.73,1.06,3-6.43h2.61V33.32H52V23.25h3.64V20H47.3ZM28.94,33.32H25.32V20h3.63Z" transform="translate(0 0)"/><path class="cls-1" d="M63.62,19.68a7.19,7.19,0,0,0-7.39,7,7.41,7.41,0,0,0,14.79,0,7.19,7.19,0,0,0-7.4-7m0,10.49a3.52,3.52,0,1,1,3.52-3.52,3.53,3.53,0,0,1-3.52,3.52" transform="translate(0 0)"/><path class="cls-1" d="M83.8,24.84a4.86,4.86,0,0,0-5-4.85H72.71V33.32h3.63V29.69H78l1.65,3.63h4.07l-2.26-4.48a4.83,4.83,0,0,0,2.29-4m-5.16,1.58H76.33V23.25h2.31c.82,0,1.35.92,1.35,1.58s-.53,1.58-1.35,1.58" transform="translate(0 0)"/><rect class="cls-1" x="85.58" y="19.98" width="3.63" height="13.33"/><path class="cls-1" d="M53,40.53A3.55,3.55,0,0,0,51.17,40c-.74,0-1.26.29-1.26.79s.57.63,1.36.76l.37.06c1.17.19,2.09.7,2.09,1.84,0,1.45-1.28,2.14-2.69,2.14a4.56,4.56,0,0,1-2.77-.86L49,43.65a3.46,3.46,0,0,0,2.09.71c.73,0,1.29-.29,1.29-.79s-.48-.62-1.39-.77l-.42-.06c-1.16-.18-2-.7-2-1.88,0-1.37,1.22-2.08,2.62-2.08a4.63,4.63,0,0,1,2.51.7Z" transform="translate(0 0)"/><path class="cls-1" d="M57.84,42H56.19v1.66c0,.57.3.77.68.77a1.75,1.75,0,0,0,.86-.3l.45,1a2.53,2.53,0,0,1-1.51.48c-1.12,0-1.7-.63-1.7-1.81V42h-.88V40.9H55V39.55h1.22V40.9h1.64Z" transform="translate(0 0)"/><path class="cls-1" d="M59.65,43.17a1.17,1.17,0,1,0,1.17-1.25,1.17,1.17,0,0,0-1.17,1.25m3.5,2.27H62v-.5a1.68,1.68,0,0,1-1.36.61,2.4,2.4,0,0,1,0-4.78A1.68,1.68,0,0,1,62,41.4v-.5h1.19Z" transform="translate(0 0)"/><path class="cls-1" d="M67.54,42H65.9v1.66c0,.57.3.77.68.77a1.75,1.75,0,0,0,.85-.3l.45,1a2.53,2.53,0,0,1-1.51.48c-1.12,0-1.7-.63-1.7-1.81V42H63.8V40.9h.88V39.55H65.9V40.9h1.65Z" transform="translate(0 0)"/><path class="cls-1" d="M69.36,42.75h2a1,1,0,0,0-2,0m3.24.42a3.94,3.94,0,0,1,0,.41H69.36a1.09,1.09,0,0,0,1.17.94,1.85,1.85,0,0,0,1.15-.44l.72.79a2.76,2.76,0,0,1-1.94.69,2.39,2.39,0,0,1-.06-4.78,2.2,2.2,0,0,1,2.21,2.39" transform="translate(0 0)"/><path class="cls-1" d="M54.22,48.2l-.94.93a2.14,2.14,0,1,0-1.61,3.66,1.69,1.69,0,0,0,1.87-1.45H51.86V50.24h3c0,.12,0,.25,0,.37A3.18,3.18,0,0,1,51.7,54a3.4,3.4,0,1,1,2.52-5.8" transform="translate(0 0)"/><path class="cls-1" d="M56.77,51.61A1.21,1.21,0,1,0,58,50.36a1.19,1.19,0,0,0-1.2,1.25m3.67,0A2.46,2.46,0,1,1,58,49.22a2.36,2.36,0,0,1,2.46,2.39" transform="translate(0 0)"/><polygon class="cls-1" points="63.76 53.88 62.35 53.88 60.56 49.34 61.89 49.34 63.07 52.59 64.25 49.34 65.54 49.34 63.76 53.88"/><path class="cls-1" d="M66.94,51.19h2a1,1,0,0,0-1-.91,1,1,0,0,0-1,.91m3.24.42a3.84,3.84,0,0,1,0,.41H66.93A1.1,1.1,0,0,0,68.1,53a1.83,1.83,0,0,0,1.15-.44l.72.79A2.77,2.77,0,0,1,68,54,2.39,2.39,0,0,1,68,49.22a2.2,2.2,0,0,1,2.21,2.39" transform="translate(0 0)"/><path class="cls-1" d="M74.09,49.32l-.18,1.21a2,2,0,0,0-.74-.14.91.91,0,0,0-1,1v2.48H71V49.34h1.19v.5a1.43,1.43,0,0,1,1.28-.62,1.9,1.9,0,0,1,.64.1" transform="translate(0 0)"/><path class="cls-1" d="M79,51v2.89H77.81v-2.5c0-.65-.33-1-.88-1a.93.93,0,0,0-1,1v2.49H74.74V49.34h1.19v.53a1.53,1.53,0,0,1,1.34-.66A1.69,1.69,0,0,1,79,51" transform="translate(0 0)"/><path class="cls-1" d="M87.46,51v2.89H86.24v-2.5c0-.65-.33-1-.89-1a.93.93,0,0,0-1,1v2.49H83.17v-2.5c0-.65-.33-1-.89-1a.93.93,0,0,0-1,1v2.49H80.09V49.34h1.19v.53a1.52,1.52,0,0,1,1.34-.66,1.72,1.72,0,0,1,1.5.78,1.83,1.83,0,0,1,3.33,1" transform="translate(0 0)"/><path class="cls-1" d="M89.51,51.19h2a1,1,0,0,0-2,0m3.24.42a3.3,3.3,0,0,1,0,.41H89.5a1.1,1.1,0,0,0,1.17.95,1.84,1.84,0,0,0,1.15-.44l.72.79a2.78,2.78,0,0,1-1.94.69,2.39,2.39,0,0,1-.06-4.78,2.2,2.2,0,0,1,2.21,2.39" transform="translate(0 0)"/><path class="cls-1" d="M97.85,51v2.89H96.63v-2.5c0-.65-.33-1-.89-1a.93.93,0,0,0-1,1v2.49H93.56V49.34h1.19v.53a1.52,1.52,0,0,1,1.34-.66A1.69,1.69,0,0,1,97.85,51" transform="translate(0 0)"/><path class="cls-1" d="M102.16,50.43h-1.64v1.66c0,.56.3.77.68.77a1.76,1.76,0,0,0,.86-.3l.45,1A2.54,2.54,0,0,1,101,54c-1.12,0-1.7-.64-1.7-1.81V50.43h-.88V49.34h.88V48h1.22v1.35h1.64Z" transform="translate(0 0)"/></svg>